<svg xmlns="http://www.w3.org/2000/svg" xmlns:xlink="http://www.w3.org/1999/xlink" version="1.1" x="0px" y="0px" viewBox="0 0 100 125" enable-background="new 0 0 100 100" xml:space="preserve"><g><path fill="#000000" d="M92.501,0c0.114-0.281,0.227-0.566,0.337-0.855l-0.053-0.022l-4.756-1.825   c-0.232,0.604-0.473,1.182-0.722,1.747L56.829-13.07c0.201-0.605,0.416-1.215,0.655-1.839l-4.807-1.843   c-2.438,6.349-3.074,11.833-2.579,16.755 M50.099,0.002c0.55,5.464,2.493,10.233,4.912,14.715c1.65-0.484,3.281-0.998,4.872-1.576   l7.728,3.071c-1.533,0.518-3.101,0.987-4.685,1.44c-0.062,0.021-0.127,0.037-0.191,0.058c0,0,0,0-0.003-0.002   c-0.064-0.025-1.198,0.309-1.75,0.499c-0.005,0.001-0.01,0.003-0.012,0.002c-0.122,0.036-0.246,0.073-0.367,0.104   c-0.063,0.018-0.13,0.039-0.196,0.057c-0.873,0.247-1.753,0.491-2.628,0.75c-0.063,0.017-0.122,0.032-0.188,0.052   c-1.752,0.508-3.499,1.044-5.227,1.651c-8.774,3.084-16.973,8.024-22.032,20.581l-0.006-0.002l-0.262,0.687l-0.015,0.038   l0.005,0.002c-1.718,4.685-2.444,8.898-2.464,12.759c0.002,0.097,0.002,0.196,0.004,0.29c0.088,6.579,2.255,12.147,5.065,17.335   c1.025-0.301,2.459-0.793,3.795-1.268l7.803,3.102c-0.711,0.227-1.429,0.448-2.151,0.662c-0.572,0.168-1.145,0.333-1.72,0.499   c-0.062,0.016-0.127,0.034-0.191,0.054c-0.592,0.172-1.187,0.336-1.78,0.503c-1.057,0.297-2.116,0.591-3.174,0.905   c-0.062,0.019-0.124,0.033-0.187,0.053c-0.391,0.116-0.783,0.229-1.175,0.352c-1.683,0.505-3.359,1.051-5.011,1.675   c-8.442,3.184-16.226,8.378-21.009,20.828l4.807,1.847c0.279-0.726,0.571-1.42,0.873-2.093l30.437,12.1   c-0.229,0.721-0.478,1.45-0.765,2.198l4.807,1.849c1.773-4.616,2.575-8.776,2.67-12.595c0.005-0.218,0.013-0.438,0.013-0.655   c0.033-6.95-2.265-12.773-5.233-18.198c-1.58,0.467-3.256,1.254-4.791,1.829l-7.752-3.082c1.19-0.401,2.397-0.771,3.619-1.128   c0.436-0.129,0.874-0.255,1.314-0.377c0.646-0.186,1.296-0.367,1.948-0.552c1.057-0.297,2.125-0.598,3.203-0.91   c0.58-0.169,1.164-0.342,1.746-0.525c1.662-0.511,3.334-1.07,4.986-1.72c0.555-0.217,1.106-0.443,1.656-0.681l0.168,0.068   l0.069-0.172c7.395-3.239,14.325-8.539,18.731-19.462l0.003,0.002l0.005-0.014l0.261-0.669l0.017-0.042l-0.007-0.002   c1.731-4.736,2.437-8.983,2.41-12.877c0.006-0.074,0.006-0.149,0-0.222c-0.002-0.005,0-0.011-0.002-0.014   c-0.092-6.561-2.262-12.116-5.065-17.294c-1.287,0.379-3.223,1.058-4.789,1.628c-0.322,0.116-0.624,0.225-0.906,0.328l-7.533-2.995   c1.404-0.482,2.843-0.919,4.294-1.343c0.451-0.126,0.902-0.258,1.351-0.386c0.063-0.019,1.122-0.318,1.595-0.449   c1.168-0.328,2.352-0.661,3.546-1.013c0.062-0.021,0.122-0.037,0.185-0.057c2.365-0.699,4.76-1.48,7.117-2.452   C80.572,16.563,87.9,11.315,92.501,0 M55.556-8.037L84.898,3.628c-0.725,1.146-1.486,2.198-2.287,3.154L55.152-4.132   C55.193-5.391,55.327-6.69,55.556-8.037z M56.888,6.408c-0.564-1.56-1.016-3.165-1.319-4.834L78.525,10.7   c-1.32,1.021-2.706,1.896-4.143,2.664L56.888,6.408z M44.592,30.518c1.107-0.824,2.259-1.548,3.452-2.197c0,0,0,0,0.001,0   l18.36,7.299c0,0,0.001,0.003,0.003,0.003c0.427,1.291,0.778,2.61,1.023,3.975c0,0-0.001,0-0.001,0.001L44.592,30.518   C44.59,30.518,44.592,30.518,44.592,30.518z M40.412,34.399l27.429,10.904c-0.046,1.255-0.187,2.553-0.423,3.895L38.076,37.532   C38.813,36.389,39.591,35.346,40.412,34.399z M34.999,43.6c0.204-0.516,0.415-1.012,0.63-1.499L66.12,54.223   c-0.134,0.396-0.272,0.796-0.423,1.2c-0.288,0.728-0.587,1.422-0.897,2.092L34.372,45.418C34.564,44.821,34.769,44.217,34.999,43.6   z M32.797,54.019c0.04-1.146,0.155-2.328,0.35-3.546l29.126,11.578c-0.76,1.136-1.561,2.169-2.401,3.11L32.789,54.393   C32.789,54.27,32.793,54.145,32.797,54.019z M34.696,65.002c-0.591-1.571-1.072-3.186-1.401-4.867l22.304,8.867   c-1.382,0.997-2.827,1.847-4.327,2.591L34.696,65.002z M26.137,85.92l17.594,6.992c0.497,1.313,0.91,2.657,1.214,4.056   l-22.312-8.87C23.758,87.279,24.929,86.563,26.137,85.92z M16.022,95.072c0.748-1.142,1.544-2.172,2.378-3.117l27.105,10.774   c-0.003,0.188-0.008,0.375-0.014,0.568c-0.031,1.089-0.138,2.211-0.313,3.364L16.022,95.072z"/></g></svg>