<svg xmlns="http://www.w3.org/2000/svg" xmlns:xlink="http://www.w3.org/1999/xlink" version="1.1" x="0px" y="0px" viewBox="0 0 100 125" enable-background="new 0 0 100 100" xml:space="preserve"><path d="M76.365,86.338c-0.18-0.354-0.481-0.926-0.674-1.271l-18.36-33.11c-0.192-0.347-0.351-0.954-0.351-1.351l-0.002-23.037  c0-0.396,0.242-0.72,0.539-0.72c0.295,0,0.537-0.324,0.537-0.72v-0.83c0-0.396-0.324-0.72-0.721-0.72H42.666  c-0.396,0-0.72,0.324-0.72,0.72v0.83c0,0.396,0.242,0.72,0.537,0.72s0.537,0.324,0.537,0.72v23.037c0,0.396-0.157,1.004-0.349,1.351  l-18.363,33.11c-0.192,0.347-0.495,0.918-0.673,1.271c0,0-2.097,4.162,3.408,4.162c5.506,0,22.238,0,22.238,0  c0.396,0,1.044,0,1.439,0c0,0,16.732,0,22.236,0C78.463,90.5,76.365,86.338,76.365,86.338z M35.537,72.805  c0,0,3.194-2.199,7.084-2.045c3.887,0.158,6.15,2.516,10.503,2.045c4.354-0.473,5.921-2.371,7.315-2.053  c1.394,0.323,2.959,1.041,2.959,1.041l6.968,11.066c0,0,2.959,3.141-2.093,3.141c-5.049,0-38.078,0-38.078,0s-1.51-0.152,0-3.296  C31.708,79.561,35.537,72.805,35.537,72.805z M52.611,61.01c1.664,0,3.013,1.349,3.013,3.012c0,1.664-1.349,3.013-3.013,3.013  c-1.662,0-3.011-1.349-3.011-3.013C49.6,62.358,50.949,61.01,52.611,61.01z M47.363,56.452c0.844,0,1.527,0.684,1.527,1.526  c0,0.844-0.684,1.527-1.527,1.527c-0.843,0-1.527-0.684-1.527-1.527C45.836,57.136,46.52,56.452,47.363,56.452z M50.823,13.605  c1.911,0,3.46,1.549,3.46,3.46c0,1.911-1.549,3.46-3.46,3.46s-3.46-1.549-3.46-3.46C47.363,15.154,48.912,13.605,50.823,13.605z   M54.283,8.751c1.067,0,1.933,0.865,1.933,1.933c0,1.067-0.865,1.933-1.933,1.933c-1.068,0-1.934-0.866-1.934-1.933  C52.35,9.616,53.215,8.751,54.283,8.751z"/></svg>