<svg xmlns="http://www.w3.org/2000/svg" xmlns:xlink="http://www.w3.org/1999/xlink" version="1.1" x="0px" y="0px" viewBox="0 0 96 120" enable-background="new 0 0 96 96" xml:space="preserve"><g><path d="M46.4,52.6c-4.2-4.1-7.9-7.7-10-16h14.7v-6.2H36.5v-8.2h-6.3v8.3H15.5v6.2h15c0,0-0.1,1.2-0.3,2.1   c-2.1,8.2-4.6,13.4-14.7,18.5l2.1,6.2c9.6-5.1,14.6-11.5,16.8-18.6c2.1,5.4,5.7,9.8,9.8,13.8L46.4,52.6z"/><path d="M65.8,32.5h-8.4L42.7,73.8H49l4.2-12.4H70l4.2,12.4h6.3L65.8,32.5z M55.3,55.2l6.3-16.5l6.3,16.6L55.3,55.2L55.3,55.2z"/></g></svg>