<svg xmlns="http://www.w3.org/2000/svg" xmlns:xlink="http://www.w3.org/1999/xlink" version="1.1" x="0px" y="0px" viewBox="0 0 20 25" enable-background="new 0 0 20 20" xml:space="preserve"><rect x="-167" y="-33" display="none" fill="#000000" width="198" height="87"/><polygon points="-100.006,27.425 -100.006,40 -145.994,40 -145.994,36.407 -126.233,10.18 -145.994,-17.603 -145.994,-20   -100.006,-20 -100.006,-6.348 -107.432,-15.57 -132.46,-15.807 -115.096,6.705 -132.46,30.658 -132.46,33.415 -106.952,33.415 "/><polygon points="-48.67,20.616 -48.67,29 -79.33,29 -79.33,26.604 -66.156,9.12 -79.33,-9.402 -79.33,-11 -48.67,-11 -48.67,-1.898   -53.621,-8.047 -70.307,-8.205 -58.73,6.803 -70.307,22.772 -70.307,24.61 -53.301,24.61 "/><polygon points="-10.628,19.712 -10.628,26 -33.622,26 -33.622,24.203 -23.742,11.09 -33.622,-2.801 -33.622,-4 -10.628,-4   -10.628,2.826 -14.341,-1.785 -26.855,-1.903 -18.173,9.353 -26.855,21.329 -26.855,22.708 -14.101,22.708 "/><polygon points="18.415,15.808 18.415,20 3.085,20 3.085,18.802 9.672,10.06 3.085,0.799 3.085,0 18.415,0 18.415,4.551   15.939,1.477 7.596,1.398 13.385,8.902 7.596,16.886 7.596,17.805 16.099,17.805 "/></svg>